<svg version="1.1" xmlns="http://www.w3.org/2000/svg" xmlns:xlink="http://www.w3.org/1999/xlink" width="70.919921875" height="64"><defs/><g><text fill="#eeeeee" stroke="none" font-family="Arial" font-size="24px" font-style="normal" font-weight="normal" text-decoration="none" x="0" y="0">UNREGISTERED</text><text fill="#eeeeee" stroke="none" font-family="Arial" font-size="24px" font-style="normal" font-weight="normal" text-decoration="none" x="0" y="30">UNREGISTERED</text><text fill="#eeeeee" stroke="none" font-family="Arial" font-size="24px" font-style="normal" font-weight="normal" text-decoration="none" x="0" y="60">UNREGISTERED</text><g transform="translate(-158,-254) scale(1,1)"><rect fill="#C0C0C0" stroke="none" x="175" y="271" width="50.919921875" height="44" opacity="0.2"/></g><g transform="translate(-158,-254) scale(1,1)"><rect fill="#ffffff" stroke="none" x="168" y="264" width="50.919921875" height="44"/></g><g transform="translate(-158,-254) scale(1,1)"><path fill="none" stroke="#000000" d="M 168 264 L 218.919921875 264 L 218.919921875 308 L 168 308 L 168 264 Z Z" stroke-miterlimit="10"/></g><g transform="translate(-158,-254) scale(1,1)"><path fill="none" stroke="#000000" d="M 168 289 L 218.919921875 289" stroke-miterlimit="10"/></g><g transform="translate(-158,-254) scale(1,1)"><path fill="none" stroke="#000000" d="M 168 299 L 218.919921875 299" stroke-miterlimit="10"/></g><g transform="translate(-158,-254) scale(1,1)"><g><path fill="none" stroke="none"/><text fill="#000000" stroke="none" font-family="Arial" font-size="13px" font-style="normal" font-weight="bold" text-decoration="none" x="173.591796875" y="283.5">Class1</text></g></g></g></svg>