<svg version="1.1" xmlns="http://www.w3.org/2000/svg" xmlns:xlink="http://www.w3.org/1999/xlink" width="222.919921875" height="216"><defs/><g><text fill="#eeeeee" stroke="none" font-family="Arial" font-size="24px" font-style="normal" font-weight="normal" text-decoration="none" x="0" y="0">UNREGISTERED</text><text fill="#eeeeee" stroke="none" font-family="Arial" font-size="24px" font-style="normal" font-weight="normal" text-decoration="none" x="0" y="30">UNREGISTERED</text><text fill="#eeeeee" stroke="none" font-family="Arial" font-size="24px" font-style="normal" font-weight="normal" text-decoration="none" x="0" y="60">UNREGISTERED</text><text fill="#eeeeee" stroke="none" font-family="Arial" font-size="24px" font-style="normal" font-weight="normal" text-decoration="none" x="0" y="90">UNREGISTERED</text><text fill="#eeeeee" stroke="none" font-family="Arial" font-size="24px" font-style="normal" font-weight="normal" text-decoration="none" x="0" y="120">UNREGISTERED</text><text fill="#eeeeee" stroke="none" font-family="Arial" font-size="24px" font-style="normal" font-weight="normal" text-decoration="none" x="0" y="150">UNREGISTERED</text><text fill="#eeeeee" stroke="none" font-family="Arial" font-size="24px" font-style="normal" font-weight="normal" text-decoration="none" x="0" y="180">UNREGISTERED</text><text fill="#eeeeee" stroke="none" font-family="Arial" font-size="24px" font-style="normal" font-weight="normal" text-decoration="none" x="0" y="210">UNREGISTERED</text><text fill="#eeeeee" stroke="none" font-family="Arial" font-size="24px" font-style="normal" font-weight="normal" text-decoration="none" x="200" y="0">UNREGISTERED</text><text fill="#eeeeee" stroke="none" font-family="Arial" font-size="24px" font-style="normal" font-weight="normal" text-decoration="none" x="200" y="30">UNREGISTERED</text><text fill="#eeeeee" stroke="none" font-family="Arial" font-size="24px" font-style="normal" font-weight="normal" text-decoration="none" x="200" y="60">UNREGISTERED</text><text fill="#eeeeee" stroke="none" font-family="Arial" font-size="24px" font-style="normal" font-weight="normal" text-decoration="none" x="200" y="90">UNREGISTERED</text><text fill="#eeeeee" stroke="none" font-family="Arial" font-size="24px" font-style="normal" font-weight="normal" text-decoration="none" x="200" y="120">UNREGISTERED</text><text fill="#eeeeee" stroke="none" font-family="Arial" font-size="24px" font-style="normal" font-weight="normal" text-decoration="none" x="200" y="150">UNREGISTERED</text><text fill="#eeeeee" stroke="none" font-family="Arial" font-size="24px" font-style="normal" font-weight="normal" text-decoration="none" x="200" y="180">UNREGISTERED</text><text fill="#eeeeee" stroke="none" font-family="Arial" font-size="24px" font-style="normal" font-weight="normal" text-decoration="none" x="200" y="210">UNREGISTERED</text><g transform="translate(-190,-222) scale(1,1)"><rect fill="#C0C0C0" stroke="none" x="207" y="239" width="50.919921875" height="44" opacity="0.2"/></g><g transform="translate(-190,-222) scale(1,1)"><rect fill="#ffffff" stroke="none" x="200" y="232" width="50.919921875" height="44"/></g><g transform="translate(-190,-222) scale(1,1)"><path fill="none" stroke="#000000" d="M 200 232 L 250.919921875 232 L 250.919921875 276 L 200 276 L 200 232 Z Z" stroke-miterlimit="10"/></g><g transform="translate(-190,-222) scale(1,1)"><path fill="none" stroke="#000000" d="M 200 257 L 250.919921875 257" stroke-miterlimit="10"/></g><g transform="translate(-190,-222) scale(1,1)"><path fill="none" stroke="#000000" d="M 200 267 L 250.919921875 267" stroke-miterlimit="10"/></g><g transform="translate(-190,-222) scale(1,1)"><g><path fill="none" stroke="none"/><text fill="#000000" stroke="none" font-family="Arial" font-size="13px" font-style="normal" font-weight="bold" text-decoration="none" x="205.591796875" y="251.5">Class1</text></g></g><g transform="translate(-190,-222) scale(1,1)"><rect fill="#C0C0C0" stroke="none" x="359" y="391" width="50.919921875" height="44" opacity="0.2"/></g><g transform="translate(-190,-222) scale(1,1)"><rect fill="#ffffff" stroke="none" x="352" y="384" width="50.919921875" height="44"/></g><g transform="translate(-190,-222) scale(1,1)"><path fill="none" stroke="#000000" d="M 352 384 L 402.919921875 384 L 402.919921875 428 L 352 428 L 352 384 Z Z" stroke-miterlimit="10"/></g><g transform="translate(-190,-222) scale(1,1)"><path fill="none" stroke="#000000" d="M 352 409 L 402.919921875 409" stroke-miterlimit="10"/></g><g transform="translate(-190,-222) scale(1,1)"><path fill="none" stroke="#000000" d="M 352 419 L 402.919921875 419" stroke-miterlimit="10"/></g><g transform="translate(-190,-222) scale(1,1)"><g><path fill="none" stroke="none"/><text fill="#000000" stroke="none" font-family="Arial" font-size="13px" font-style="normal" font-weight="bold" text-decoration="none" x="357.591796875" y="403.5">Class2</text></g></g></g></svg>