<svg version="1.1" xmlns="http://www.w3.org/2000/svg" xmlns:xlink="http://www.w3.org/1999/xlink" width="485.40087890625" height="219"><defs/><g><text fill="#eeeeee" stroke="none" font-family="Arial" font-size="24px" font-style="normal" font-weight="normal" text-decoration="none" x="0" y="0">UNREGISTERED</text><text fill="#eeeeee" stroke="none" font-family="Arial" font-size="24px" font-style="normal" font-weight="normal" text-decoration="none" x="0" y="30">UNREGISTERED</text><text fill="#eeeeee" stroke="none" font-family="Arial" font-size="24px" font-style="normal" font-weight="normal" text-decoration="none" x="0" y="60">UNREGISTERED</text><text fill="#eeeeee" stroke="none" font-family="Arial" font-size="24px" font-style="normal" font-weight="normal" text-decoration="none" x="0" y="90">UNREGISTERED</text><text fill="#eeeeee" stroke="none" font-family="Arial" font-size="24px" font-style="normal" font-weight="normal" text-decoration="none" x="0" y="120">UNREGISTERED</text><text fill="#eeeeee" stroke="none" font-family="Arial" font-size="24px" font-style="normal" font-weight="normal" text-decoration="none" x="0" y="150">UNREGISTERED</text><text fill="#eeeeee" stroke="none" font-family="Arial" font-size="24px" font-style="normal" font-weight="normal" text-decoration="none" x="0" y="180">UNREGISTERED</text><text fill="#eeeeee" stroke="none" font-family="Arial" font-size="24px" font-style="normal" font-weight="normal" text-decoration="none" x="0" y="210">UNREGISTERED</text><text fill="#eeeeee" stroke="none" font-family="Arial" font-size="24px" font-style="normal" font-weight="normal" text-decoration="none" x="200" y="0">UNREGISTERED</text><text fill="#eeeeee" stroke="none" font-family="Arial" font-size="24px" font-style="normal" font-weight="normal" text-decoration="none" x="200" y="30">UNREGISTERED</text><text fill="#eeeeee" stroke="none" font-family="Arial" font-size="24px" font-style="normal" font-weight="normal" text-decoration="none" x="200" y="60">UNREGISTERED</text><text fill="#eeeeee" stroke="none" font-family="Arial" font-size="24px" font-style="normal" font-weight="normal" text-decoration="none" x="200" y="90">UNREGISTERED</text><text fill="#eeeeee" stroke="none" font-family="Arial" font-size="24px" font-style="normal" font-weight="normal" text-decoration="none" x="200" y="120">UNREGISTERED</text><text fill="#eeeeee" stroke="none" font-family="Arial" font-size="24px" font-style="normal" font-weight="normal" text-decoration="none" x="200" y="150">UNREGISTERED</text><text fill="#eeeeee" stroke="none" font-family="Arial" font-size="24px" font-style="normal" font-weight="normal" text-decoration="none" x="200" y="180">UNREGISTERED</text><text fill="#eeeeee" stroke="none" font-family="Arial" font-size="24px" font-style="normal" font-weight="normal" text-decoration="none" x="200" y="210">UNREGISTERED</text><text fill="#eeeeee" stroke="none" font-family="Arial" font-size="24px" font-style="normal" font-weight="normal" text-decoration="none" x="400" y="0">UNREGISTERED</text><text fill="#eeeeee" stroke="none" font-family="Arial" font-size="24px" font-style="normal" font-weight="normal" text-decoration="none" x="400" y="30">UNREGISTERED</text><text fill="#eeeeee" stroke="none" font-family="Arial" font-size="24px" font-style="normal" font-weight="normal" text-decoration="none" x="400" y="60">UNREGISTERED</text><text fill="#eeeeee" stroke="none" font-family="Arial" font-size="24px" font-style="normal" font-weight="normal" text-decoration="none" x="400" y="90">UNREGISTERED</text><text fill="#eeeeee" stroke="none" font-family="Arial" font-size="24px" font-style="normal" font-weight="normal" text-decoration="none" x="400" y="120">UNREGISTERED</text><text fill="#eeeeee" stroke="none" font-family="Arial" font-size="24px" font-style="normal" font-weight="normal" text-decoration="none" x="400" y="150">UNREGISTERED</text><text fill="#eeeeee" stroke="none" font-family="Arial" font-size="24px" font-style="normal" font-weight="normal" text-decoration="none" x="400" y="180">UNREGISTERED</text><text fill="#eeeeee" stroke="none" font-family="Arial" font-size="24px" font-style="normal" font-weight="normal" text-decoration="none" x="400" y="210">UNREGISTERED</text><g transform="translate(-246,-158) scale(1,1)"><path fill="#ffffff" stroke="none" d="M 272.40935031960225 297.68 C 272.40935031960225 292.886167936 276.29519264454774 289 281.088623046875 289 C 285.88205344920226 289 289.76789577414775 292.886167936 289.76789577414775 297.68 C 289.76789577414775 302.473832064 285.88205344920226 306.36 281.088623046875 306.36 C 276.29519264454774 306.36 272.40935031960225 302.473832064 272.40935031960225 297.68 Z"/></g><g transform="translate(-246,-158) scale(1,1)"><path fill="none" stroke="#000000" d="M 272.40935031960225 297.68 C 272.40935031960225 292.886167936 276.29519264454774 289 281.088623046875 289 C 285.88205344920226 289 289.76789577414775 292.886167936 289.76789577414775 297.68 C 289.76789577414775 302.473832064 285.88205344920226 306.36 281.088623046875 306.36 C 276.29519264454774 306.36 272.40935031960225 302.473832064 272.40935031960225 297.68 Z" stroke-miterlimit="10"/></g><g transform="translate(-246,-158) scale(1,1)"><path fill="none" stroke="#000000" d="M 281.088623046875 306.36 L 281.088623046875 323.64" stroke-miterlimit="10"/></g><g transform="translate(-246,-158) scale(1,1)"><path fill="none" stroke="#000000" d="M 271.89880486505683 312.84 L 290.27844122869317 312.84" stroke-miterlimit="10"/></g><g transform="translate(-246,-158) scale(1,1)"><path fill="none" stroke="#000000" d="M 281.088623046875 323.64 L 268.32498668323865 341" stroke-miterlimit="10"/></g><g transform="translate(-246,-158) scale(1,1)"><path fill="none" stroke="#000000" d="M 281.088623046875 323.64 L 293.85225941051135 341" stroke-miterlimit="10"/></g><g transform="translate(-246,-158) scale(1,1)"><g><path fill="none" stroke="none"/><text fill="#000000" stroke="none" font-family="Arial" font-size="13px" font-style="normal" font-weight="bold" text-decoration="none" x="272.779541015625" y="360">B3</text></g></g><g transform="translate(-246,-158) scale(1,1)"><path fill="#ffffff" stroke="none" d="M 684.0211667258523 297.68 C 684.0211667258523 292.886167936 687.9070090507977 289 692.700439453125 289 C 697.4938698554523 289 701.3797121803977 292.886167936 701.3797121803977 297.68 C 701.3797121803977 302.473832064 697.4938698554523 306.36 692.700439453125 306.36 C 687.9070090507977 306.36 684.0211667258523 302.473832064 684.0211667258523 297.68 Z"/></g><g transform="translate(-246,-158) scale(1,1)"><path fill="none" stroke="#000000" d="M 684.0211667258523 297.68 C 684.0211667258523 292.886167936 687.9070090507977 289 692.700439453125 289 C 697.4938698554523 289 701.3797121803977 292.886167936 701.3797121803977 297.68 C 701.3797121803977 302.473832064 697.4938698554523 306.36 692.700439453125 306.36 C 687.9070090507977 306.36 684.0211667258523 302.473832064 684.0211667258523 297.68 Z" stroke-miterlimit="10"/></g><g transform="translate(-246,-158) scale(1,1)"><path fill="none" stroke="#000000" d="M 692.700439453125 306.36 L 692.700439453125 323.64" stroke-miterlimit="10"/></g><g transform="translate(-246,-158) scale(1,1)"><path fill="none" stroke="#000000" d="M 683.5106212713068 312.84 L 701.8902576349432 312.84" stroke-miterlimit="10"/></g><g transform="translate(-246,-158) scale(1,1)"><path fill="none" stroke="#000000" d="M 692.700439453125 323.64 L 679.9368030894886 341" stroke-miterlimit="10"/></g><g transform="translate(-246,-158) scale(1,1)"><path fill="none" stroke="#000000" d="M 692.700439453125 323.64 L 705.4640758167614 341" stroke-miterlimit="10"/></g><g transform="translate(-246,-158) scale(1,1)"><g><path fill="none" stroke="none"/><text fill="#000000" stroke="none" font-family="Arial" font-size="13px" font-style="normal" font-weight="bold" text-decoration="none" x="668.5" y="360">Usuário</text></g></g><g transform="translate(-246,-158) scale(1,1)"><path fill="#C0C0C0" stroke="none" d="M 415 192 C 415 182.6111584 437.6096176 175 465.5 175 C 493.3903824 175 516 182.6111584 516 192 C 516 201.3888416 493.3903824 209 465.5 209 C 437.6096176 209 415 201.3888416 415 192 Z" opacity="0.2"/></g><g transform="translate(-246,-158) scale(1,1)"><path fill="#ffffff" stroke="none" d="M 408 185 C 408 175.6111584 430.6096176 168 458.5 168 C 486.3903824 168 509 175.6111584 509 185 C 509 194.3888416 486.3903824 202 458.5 202 C 430.6096176 202 408 194.3888416 408 185 Z"/></g><g transform="translate(-246,-158) scale(1,1)"><path fill="none" stroke="#000000" d="M 408 185 C 408 175.6111584 430.6096176 168 458.5 168 C 486.3903824 168 509 175.6111584 509 185 C 509 194.3888416 486.3903824 202 458.5 202 C 430.6096176 202 408 194.3888416 408 185 Z" stroke-miterlimit="10"/></g><g transform="translate(-246,-158) scale(1,1)"><g><path fill="none" stroke="none"/><text fill="#000000" stroke="none" font-family="Arial" font-size="13px" font-style="normal" font-weight="bold" text-decoration="none" x="448.75" y="190.5">OC</text></g></g><g transform="translate(-246,-158) scale(1,1)"><path fill="none" stroke="#000000" d="M 663 309 L 488 203" stroke-miterlimit="10"/></g></g></svg>