<svg version="1.1" xmlns="http://www.w3.org/2000/svg" xmlns:xlink="http://www.w3.org/1999/xlink" width="70.17724609375" height="99"><defs/><g><text fill="#eeeeee" stroke="none" font-family="Arial" font-size="24px" font-style="normal" font-weight="normal" text-decoration="none" x="0" y="0">UNREGISTERED</text><text fill="#eeeeee" stroke="none" font-family="Arial" font-size="24px" font-style="normal" font-weight="normal" text-decoration="none" x="0" y="30">UNREGISTERED</text><text fill="#eeeeee" stroke="none" font-family="Arial" font-size="24px" font-style="normal" font-weight="normal" text-decoration="none" x="0" y="60">UNREGISTERED</text><text fill="#eeeeee" stroke="none" font-family="Arial" font-size="24px" font-style="normal" font-weight="normal" text-decoration="none" x="0" y="90">UNREGISTERED</text><g transform="translate(-206,-190) scale(1,1)"><path fill="#ffffff" stroke="none" d="M 232.40935031960228 209.68 C 232.40935031960228 204.886167936 236.29519264454774 201 241.088623046875 201 C 245.88205344920226 201 249.76789577414772 204.886167936 249.76789577414772 209.68 C 249.76789577414772 214.47383206400002 245.88205344920226 218.36 241.088623046875 218.36 C 236.29519264454774 218.36 232.40935031960228 214.47383206400002 232.40935031960228 209.68 Z"/></g><g transform="translate(-206,-190) scale(1,1)"><path fill="none" stroke="#000000" d="M 232.40935031960228 209.68 C 232.40935031960228 204.886167936 236.29519264454774 201 241.088623046875 201 C 245.88205344920226 201 249.76789577414772 204.886167936 249.76789577414772 209.68 C 249.76789577414772 214.47383206400002 245.88205344920226 218.36 241.088623046875 218.36 C 236.29519264454774 218.36 232.40935031960228 214.47383206400002 232.40935031960228 209.68 Z" stroke-miterlimit="10"/></g><g transform="translate(-206,-190) scale(1,1)"><path fill="none" stroke="#000000" d="M 241.088623046875 218.36 L 241.088623046875 235.64" stroke-miterlimit="10"/></g><g transform="translate(-206,-190) scale(1,1)"><path fill="none" stroke="#000000" d="M 231.89880486505683 224.84 L 250.27844122869317 224.84" stroke-miterlimit="10"/></g><g transform="translate(-206,-190) scale(1,1)"><path fill="none" stroke="#000000" d="M 241.088623046875 235.64 L 228.32498668323865 253" stroke-miterlimit="10"/></g><g transform="translate(-206,-190) scale(1,1)"><path fill="none" stroke="#000000" d="M 241.088623046875 235.64 L 253.85225941051135 253" stroke-miterlimit="10"/></g><g transform="translate(-206,-190) scale(1,1)"><g><path fill="none" stroke="none"/><text fill="#000000" stroke="none" font-family="Arial" font-size="13px" font-style="normal" font-weight="bold" text-decoration="none" x="222.302734375" y="273.5">Actor1</text></g></g></g></svg>