<svg version="1.1" xmlns="http://www.w3.org/2000/svg" xmlns:xlink="http://www.w3.org/1999/xlink" width="70.919921875" height="64"><defs/><g><text fill="#eeeeee" stroke="none" font-family="Arial" font-size="24px" font-style="normal" font-weight="normal" text-decoration="none" x="0" y="0">UNREGISTERED</text><text fill="#eeeeee" stroke="none" font-family="Arial" font-size="24px" font-style="normal" font-weight="normal" text-decoration="none" x="0" y="30">UNREGISTERED</text><text fill="#eeeeee" stroke="none" font-family="Arial" font-size="24px" font-style="normal" font-weight="normal" text-decoration="none" x="0" y="60">UNREGISTERED</text><g transform="translate(-294,-206) scale(1,1)"><rect fill="#C0C0C0" stroke="none" x="311" y="223" width="50.919921875" height="44" opacity="0.2"/></g><g transform="translate(-294,-206) scale(1,1)"><rect fill="#ffffff" stroke="none" x="304" y="216" width="50.919921875" height="44"/></g><g transform="translate(-294,-206) scale(1,1)"><path fill="none" stroke="#000000" d="M 304 216 L 354.919921875 216 L 354.919921875 260 L 304 260 L 304 216 Z Z" stroke-miterlimit="10"/></g><g transform="translate(-294,-206) scale(1,1)"><path fill="none" stroke="#000000" d="M 304 241 L 354.919921875 241" stroke-miterlimit="10"/></g><g transform="translate(-294,-206) scale(1,1)"><path fill="none" stroke="#000000" d="M 304 251 L 354.919921875 251" stroke-miterlimit="10"/></g><g transform="translate(-294,-206) scale(1,1)"><g><path fill="none" stroke="none"/><text fill="#000000" stroke="none" font-family="Arial" font-size="13px" font-style="normal" font-weight="bold" text-decoration="none" x="308.5" y="234">Class1</text></g></g></g></svg>